<svg width="56" height="56" viewBox="0 0 56 56" fill="none" xmlns="http://www.w3.org/2000/svg">
<path d="M54.4444 18.6667C54.4444 17.1111 52.8889 12.4445 48.2222 12.4445H14.6238C12.4818 12.4445 9.506 15.2305 7.93178 18.6667L3.11111 26.4445C0.850889 27.3762 0 30.0705 0 32.6667V42C0 43.6502 0.655554 45.2329 1.82245 46.3998C2.98934 47.5667 4.57199 48.2222 6.22222 48.2222H49.7778C51.428 48.2222 53.0107 47.5667 54.1776 46.3998C55.3444 45.2329 56 43.6502 56 42V29.5556C56 27.958 54.4444 18.6667 54.4444 18.6667Z" fill="white"/>
<path d="M14.0012 38.8889C11.5643 38.8899 9.22464 39.8444 7.48247 41.5482C5.7403 43.252 4.73397 45.5698 4.67871 48.006C5.17649 48.132 5.68671 48.2222 6.22338 48.2222H23.3345C23.3345 45.7469 22.3512 43.3729 20.6008 41.6226C18.8505 39.8722 16.4765 38.8889 14.0012 38.8889ZM51.3236 48.0045C51.2683 45.5684 50.262 43.2507 48.5197 41.5472C46.7775 39.8436 44.4378 38.8895 42.0012 38.8889C36.8492 38.8889 32.6678 43.0687 32.6678 48.2222H49.7789C50.3156 48.2222 50.8274 48.132 51.3236 48.0045Z" fill="#E1E8ED"/>
<path d="M13.9986 54.4444C17.435 54.4444 20.2208 51.6587 20.2208 48.2222C20.2208 44.7858 17.435 42 13.9986 42C10.5622 42 7.77637 44.7858 7.77637 48.2222C7.77637 51.6587 10.5622 54.4444 13.9986 54.4444Z" fill="#292F33"/>
<path d="M13.9998 51.3333C15.718 51.3333 17.1109 49.9404 17.1109 48.2222C17.1109 46.504 15.718 45.1111 13.9998 45.1111C12.2816 45.1111 10.8887 46.504 10.8887 48.2222C10.8887 49.9404 12.2816 51.3333 13.9998 51.3333Z" fill="#99AAB5"/>
<path d="M41.9986 54.4444C45.435 54.4444 48.2208 51.6587 48.2208 48.2222C48.2208 44.7858 45.435 42 41.9986 42C38.5622 42 35.7764 44.7858 35.7764 48.2222C35.7764 51.6587 38.5622 54.4444 41.9986 54.4444Z" fill="#292F33"/>
<path d="M41.9998 51.3333C43.718 51.3333 45.1109 49.9404 45.1109 48.2222C45.1109 46.504 43.718 45.1111 41.9998 45.1111C40.2816 45.1111 38.8887 46.504 38.8887 48.2222C38.8887 49.9404 40.2816 51.3333 41.9998 51.3333Z" fill="#99AAB5"/>
<path d="M0 32.6667H56V37.3333H0V32.6667ZM48.2222 20.2222H43.5556V15.5555H40.4444V20.2222H35.7778V23.3333H40.4444V28H43.5556V23.3333H48.2222V20.2222Z" fill="#DD2E44"/>
<path d="M12.4459 15.5555H20.2236V26.4444H6.22363L12.4459 15.5555Z" fill="#64B5F5"/>
<path d="M23.3334 10.1113C23.3334 10.7301 23.0876 11.3236 22.65 11.7612C22.2124 12.1988 21.6189 12.4446 21.0001 12.4446H17.889C17.2702 12.4446 16.6767 12.1988 16.2391 11.7612C15.8015 11.3236 15.5557 10.7301 15.5557 10.1113C15.5557 9.49245 15.8015 8.89896 16.2391 8.46137C16.6767 8.02379 17.2702 7.77795 17.889 7.77795H21.0001C21.6189 7.77795 22.2124 8.02379 22.65 8.46137C23.0876 8.89896 23.3334 9.49245 23.3334 10.1113Z" fill="#DD2E44"/>
<path d="M28.0014 10.1113C28.0014 10.7301 27.7556 11.3236 27.318 11.7612C26.8804 12.1988 26.2869 12.4446 25.6681 12.4446H22.557C21.9381 12.4446 21.3446 12.1988 20.9071 11.7612C20.4695 11.3236 20.2236 10.7301 20.2236 10.1113C20.2236 9.49245 20.4695 8.89896 20.9071 8.46137C21.3446 8.02379 21.9381 7.77795 22.557 7.77795H25.6681C26.2869 7.77795 26.8804 8.02379 27.318 8.46137C27.7556 8.89896 28.0014 9.49245 28.0014 10.1113Z" fill="#64B5F5"/>
</svg>
