<svg width="32" height="32" viewBox="0 0 32 32" fill="none" xmlns="http://www.w3.org/2000/svg">
<path d="M28.8359 1.86389H3.68117C2.81956 1.86389 2.12109 2.56236 2.12109 3.42397V28.5787C2.12109 29.4403 2.81956 30.1388 3.68117 30.1388H28.8359C29.6975 30.1388 30.396 29.4403 30.396 28.5787V3.42397C30.396 2.56236 29.6975 1.86389 28.8359 1.86389Z" fill="#3D5A98"/>
<path d="M21.6285 30.1362V19.187H25.303L25.8524 14.9201H21.6285V12.1965C21.6285 10.9614 21.9726 10.118 23.7429 10.118H26.003V6.29548C24.9085 6.18163 23.8087 6.1274 22.7084 6.13303C19.4545 6.13303 17.2135 8.11597 17.2135 11.7737V14.9201H13.5391V19.187H17.2135V30.1362H21.6285Z" fill="white"/>
</svg>
