<svg width="31" height="32" viewBox="0 0 31 32" fill="none" xmlns="http://www.w3.org/2000/svg">
<path d="M28.1255 13.5046H27.0991V13.4518H15.6315V18.5485H22.8325C21.782 21.5154 18.959 23.6452 15.6315 23.6452C11.4095 23.6452 7.98638 20.2221 7.98638 16.0001C7.98638 11.7781 11.4095 8.35503 15.6315 8.35503C17.5803 8.35503 19.3534 9.09023 20.7034 10.2912L24.3074 6.68713C22.0317 4.56625 18.9877 3.2583 15.6315 3.2583C8.5948 3.2583 2.88965 8.96345 2.88965 16.0001C2.88965 23.0368 8.5948 28.742 15.6315 28.742C22.6681 28.742 28.3733 23.0368 28.3733 16.0001C28.3733 15.1458 28.2854 14.3118 28.1255 13.5046Z" fill="#FFC107"/>
<path d="M4.35742 10.0694L8.54375 13.1396C9.6765 10.3351 12.4198 8.35503 15.6301 8.35503C17.579 8.35503 19.352 9.09023 20.702 10.2912L24.306 6.68713C22.0303 4.56625 18.9863 3.2583 15.6301 3.2583C10.736 3.2583 6.49168 6.02137 4.35742 10.0694Z" fill="#FF3D00"/>
<path d="M15.6315 28.7416C18.9227 28.7416 21.9132 27.4821 24.1743 25.4339L20.2307 22.0968C18.9086 23.1028 17.2928 23.6467 15.6315 23.6449C12.3173 23.6449 9.50331 21.5317 8.44319 18.5826L4.28809 21.784C6.39686 25.9104 10.6794 28.7416 15.6315 28.7416Z" fill="#4CAF50"/>
<path d="M28.1258 13.5043H27.0995V13.4514H15.6318V18.5481H22.8329C22.3303 19.9602 21.4251 21.1941 20.2291 22.0974L20.231 22.0961L24.1746 25.4332C23.8955 25.6868 28.3737 22.3707 28.3737 15.9998C28.3737 15.1454 28.2857 14.3115 28.1258 13.5043Z" fill="#1976D2"/>
</svg>
