<svg width="73" height="9" viewBox="0 0 73 9" fill="none" xmlns="http://www.w3.org/2000/svg">
<path d="M1.37165 0.665518C1.18692 0.460263 0.870773 0.443623 0.665518 0.628353C0.460263 0.813082 0.443623 1.12923 0.628353 1.33448L1.37165 0.665518ZM73 1L67.5095 2.78534L71.8009 6.64761L73 1ZM63.5701 6.52235L63.9418 6.18787L63.5701 6.52235ZM60.8299 3.47765L61.2015 3.14316L60.8299 3.47765ZM53.6299 6.52235L53.2582 6.18787L53.6299 6.52235ZM46.4299 3.47765L46.0582 3.81213L46.4299 3.47765ZM34.7701 6.52235L34.3985 6.85684L34.7701 6.52235ZM39.2299 6.52235L38.8582 6.18787L39.2299 6.52235ZM32.0299 3.47765L31.6582 3.81213L32.0299 3.47765ZM20.3701 6.52235L20.7418 6.18787L20.3701 6.52235ZM24.8299 6.52235L24.4582 6.18787L24.8299 6.52235ZM13.1701 3.47765L12.7985 3.14316L13.1701 3.47765ZM0.628353 1.33448L5.59847 6.85684L6.34177 6.18787L1.37165 0.665518L0.628353 1.33448ZM10.8015 6.85684L13.5418 3.81213L12.7985 3.14316L10.0582 6.18787L10.8015 6.85684ZM17.2582 3.81213L19.9985 6.85684L20.7418 6.18787L18.0015 3.14316L17.2582 3.81213ZM25.2015 6.85684L27.9418 3.81213L27.1985 3.14316L24.4582 6.18787L25.2015 6.85684ZM31.6582 3.81213L34.3985 6.85684L35.1418 6.18787L32.4015 3.14316L31.6582 3.81213ZM39.6015 6.85684L42.3418 3.81213L41.5985 3.14316L38.8582 6.18787L39.6015 6.85684ZM46.0582 3.81213L48.7985 6.85684L49.5418 6.18787L46.8015 3.14316L46.0582 3.81213ZM54.0015 6.85684L56.7418 3.81213L55.9985 3.14316L53.2582 6.18787L54.0015 6.85684ZM60.4582 3.81213L63.1985 6.85684L63.9418 6.18787L61.2015 3.14316L60.4582 3.81213ZM68.4015 6.85684L70.3613 4.67931L69.618 4.01034L67.6582 6.18787L68.4015 6.85684ZM63.1985 6.85684C64.5888 8.40167 67.0112 8.40167 68.4015 6.85684L67.6582 6.18787C66.6651 7.29132 64.9349 7.29132 63.9418 6.18787L63.1985 6.85684ZM56.7418 3.81213C57.7349 2.70868 59.4651 2.70868 60.4582 3.81213L61.2015 3.14316C59.8112 1.59833 57.3888 1.59833 55.9985 3.14316L56.7418 3.81213ZM48.7985 6.85684C50.1888 8.40167 52.6112 8.40167 54.0015 6.85684L53.2582 6.18787C52.2651 7.29132 50.5349 7.29132 49.5418 6.18787L48.7985 6.85684ZM42.3418 3.81213C43.3349 2.70868 45.0651 2.70868 46.0582 3.81213L46.8015 3.14316C45.4112 1.59833 42.9888 1.59833 41.5985 3.14316L42.3418 3.81213ZM34.3985 6.85684C35.7888 8.40167 38.2112 8.40167 39.6015 6.85684L38.8582 6.18787C37.8651 7.29132 36.1349 7.29132 35.1418 6.18787L34.3985 6.85684ZM27.9418 3.81213C28.9349 2.70868 30.6651 2.70868 31.6582 3.81213L32.4015 3.14316C31.0112 1.59833 28.5888 1.59833 27.1985 3.14316L27.9418 3.81213ZM19.9985 6.85684C21.3888 8.40167 23.8112 8.40167 25.2015 6.85684L24.4582 6.18787C23.4651 7.29132 21.7349 7.29132 20.7418 6.18787L19.9985 6.85684ZM13.5418 3.81213C14.5349 2.70868 16.2651 2.70868 17.2582 3.81213L18.0015 3.14316C16.6112 1.59833 14.1888 1.59833 12.7985 3.14316L13.5418 3.81213ZM5.59847 6.85684C6.98882 8.40167 9.41118 8.40167 10.8015 6.85684L10.0582 6.18787C9.06513 7.29132 7.33487 7.29132 6.34177 6.18787L5.59847 6.85684Z" fill="#64B5F5"/>
</svg>
