<svg width="73" height="9" viewBox="0 0 73 9" fill="none" xmlns="http://www.w3.org/2000/svg">
<path d="M71.6284 0.665518C71.8131 0.460263 72.1292 0.443623 72.3345 0.628353C72.5397 0.813082 72.5564 1.12923 72.3716 1.33448L71.6284 0.665518ZM0 1L5.49053 2.78534L1.19912 6.64761L0 1ZM9.42988 6.52235L9.05824 6.18787L9.42988 6.52235ZM12.1701 3.47765L11.7985 3.14316L12.1701 3.47765ZM19.3701 6.52235L19.7418 6.18787L19.3701 6.52235ZM26.5701 3.47765L26.9418 3.81213L26.5701 3.47765ZM38.2299 6.52235L38.6015 6.85684L38.2299 6.52235ZM33.7701 6.52235L34.1418 6.18787L33.7701 6.52235ZM40.9701 3.47765L41.3418 3.81213L40.9701 3.47765ZM52.6299 6.52235L52.2582 6.18787L52.6299 6.52235ZM48.1701 6.52235L48.5418 6.18787L48.1701 6.52235ZM59.8299 3.47765L60.2015 3.14316L59.8299 3.47765ZM72.3716 1.33448L67.4015 6.85684L66.6582 6.18787L71.6284 0.665518L72.3716 1.33448ZM62.1985 6.85684L59.4582 3.81213L60.2015 3.14316L62.9418 6.18787L62.1985 6.85684ZM55.7418 3.81213L53.0015 6.85684L52.2582 6.18787L54.9985 3.14316L55.7418 3.81213ZM47.7985 6.85684L45.0582 3.81213L45.8015 3.14316L48.5418 6.18787L47.7985 6.85684ZM41.3418 3.81213L38.6015 6.85684L37.8582 6.18787L40.5985 3.14316L41.3418 3.81213ZM33.3985 6.85684L30.6582 3.81213L31.4015 3.14316L34.1418 6.18787L33.3985 6.85684ZM26.9418 3.81213L24.2015 6.85684L23.4582 6.18787L26.1985 3.14316L26.9418 3.81213ZM18.9985 6.85684L16.2582 3.81213L17.0015 3.14316L19.7418 6.18787L18.9985 6.85684ZM12.5418 3.81213L9.80153 6.85684L9.05824 6.18787L11.7985 3.14316L12.5418 3.81213ZM4.59847 6.85684L2.63869 4.67931L3.38199 4.01034L5.34177 6.18787L4.59847 6.85684ZM9.80153 6.85684C8.41118 8.40167 5.98882 8.40167 4.59847 6.85684L5.34177 6.18787C6.33487 7.29132 8.06513 7.29132 9.05824 6.18787L9.80153 6.85684ZM16.2582 3.81213C15.2651 2.70868 13.5349 2.70868 12.5418 3.81213L11.7985 3.14316C13.1888 1.59833 15.6112 1.59833 17.0015 3.14316L16.2582 3.81213ZM24.2015 6.85684C22.8112 8.40167 20.3888 8.40167 18.9985 6.85684L19.7418 6.18787C20.7349 7.29132 22.4651 7.29132 23.4582 6.18787L24.2015 6.85684ZM30.6582 3.81213C29.6651 2.70868 27.9349 2.70868 26.9418 3.81213L26.1985 3.14316C27.5888 1.59833 30.0112 1.59833 31.4015 3.14316L30.6582 3.81213ZM38.6015 6.85684C37.2112 8.40167 34.7888 8.40167 33.3985 6.85684L34.1418 6.18787C35.1349 7.29132 36.8651 7.29132 37.8582 6.18787L38.6015 6.85684ZM45.0582 3.81213C44.0651 2.70868 42.3349 2.70868 41.3418 3.81213L40.5985 3.14316C41.9888 1.59833 44.4112 1.59833 45.8015 3.14316L45.0582 3.81213ZM53.0015 6.85684C51.6112 8.40167 49.1888 8.40167 47.7985 6.85684L48.5418 6.18787C49.5349 7.29132 51.2651 7.29132 52.2582 6.18787L53.0015 6.85684ZM59.4582 3.81213C58.4651 2.70868 56.7349 2.70868 55.7418 3.81213L54.9985 3.14316C56.3888 1.59833 58.8112 1.59833 60.2015 3.14316L59.4582 3.81213ZM67.4015 6.85684C66.0112 8.40167 63.5888 8.40167 62.1985 6.85684L62.9418 6.18787C63.9349 7.29132 65.6651 7.29132 66.6582 6.18787L67.4015 6.85684Z" fill="#64B5F5"/>
</svg>
