<svg width="28" height="27" viewBox="0 0 28 27" fill="none" xmlns="http://www.w3.org/2000/svg">
<path d="M25.943 5.96349C25.9999 6.10049 26.0148 6.25129 25.986 6.39681C25.9572 6.54232 25.8858 6.67602 25.781 6.78099L22.781 9.78099C22.7112 9.85059 22.6284 9.90576 22.5373 9.94333C22.4462 9.98091 22.3486 10.0002 22.25 9.99999H18.0605L16.031 12.0295C16.2598 12.5084 16.3119 13.0528 16.1781 13.5665C16.0443 14.0801 15.7332 14.5299 15.2998 14.8363C14.8664 15.1428 14.3387 15.2862 13.8098 15.2412C13.281 15.1961 12.785 14.9656 12.4097 14.5903C12.0344 14.2149 11.8039 13.719 11.7588 13.1902C11.7138 12.6613 11.8572 12.1335 12.1636 11.7002C12.4701 11.2668 12.9199 10.9557 13.4335 10.8219C13.9472 10.6881 14.4916 10.7402 14.9705 10.969L17 8.93949V4.74998C16.9998 4.65143 17.0191 4.5538 17.0567 4.46269C17.0942 4.37158 17.1494 4.28876 17.219 4.21898L20.219 1.21898C20.3239 1.11382 20.4576 1.04218 20.6033 1.01313C20.749 0.984078 20.9 0.998932 21.0372 1.05581C21.1744 1.11268 21.2916 1.20902 21.374 1.3326C21.4564 1.45619 21.5003 1.60145 21.5 1.74998V5.49999H25.25C25.3984 5.50001 25.5435 5.54406 25.6668 5.62657C25.7902 5.70908 25.8863 5.82633 25.943 5.96349ZM23.4395 6.99999H20.75C20.5511 6.99999 20.3603 6.92097 20.2197 6.78031C20.079 6.63966 20 6.4489 20 6.24999V3.56049L18.5 5.06048V8.49999H21.9395L23.4395 6.99999ZM25.4105 9.27248C25.793 10.4455 26 11.6995 26 13C25.9994 15.5349 25.1962 18.0045 23.7054 20.0547C22.2146 22.1049 20.1128 23.6303 17.7015 24.4122C15.2902 25.1941 12.6932 25.1924 10.283 24.4072C7.87277 23.622 5.77309 22.0937 4.28507 20.0415C2.79705 17.9893 1.99712 15.5186 2.00001 12.9837C2.00289 10.4488 2.80844 7.97993 4.30113 5.93112C5.79383 3.88231 7.89698 2.35882 10.309 1.57912C12.721 0.799427 15.318 0.80358 17.7275 1.59099L16.5155 2.80298C14.2889 2.25398 11.9438 2.44904 9.83844 3.35836C7.73313 4.26768 5.98341 5.84126 4.85663 7.83866C3.72986 9.83606 3.28799 12.1474 3.59856 14.4196C3.90912 16.6918 4.95504 18.7998 6.57648 20.4216C8.19793 22.0433 10.3057 23.0897 12.5779 23.4007C14.85 23.7117 17.1614 23.2703 19.159 22.1439C21.1567 21.0175 22.7306 19.2681 23.6403 17.1629C24.5501 15.0578 24.7456 12.7127 24.197 10.486L25.4105 9.27248ZM21.35 11.5C21.45 11.986 21.5 12.486 21.5 13C21.4997 14.5477 21.0206 16.0573 20.1284 17.3219C19.2362 18.5866 17.9747 19.5442 16.5167 20.0636C15.0588 20.5829 13.4759 20.6385 11.9852 20.2227C10.4944 19.807 9.16875 18.9402 8.19004 17.7413C7.21133 16.5424 6.62749 15.07 6.51859 13.5262C6.40969 11.9824 6.78105 10.4427 7.58176 9.11822C8.38247 7.79378 9.5733 6.74949 10.9909 6.12855C12.4086 5.50762 13.9836 5.34045 15.5 5.64998V7.18899C14.2257 6.86025 12.8787 6.95958 11.6664 7.47169C10.4541 7.9838 9.44381 8.88028 8.79112 10.023C8.13844 11.1658 7.87957 12.4914 8.05438 13.7958C8.2292 15.1002 8.82801 16.3109 9.75857 17.2414C10.6891 18.172 11.8998 18.7708 13.2042 18.9456C14.5085 19.1204 15.8342 18.8615 16.9769 18.2089C18.1197 17.5562 19.0162 16.5459 19.5283 15.3336C20.0404 14.1213 20.1397 12.7743 19.811 11.5H21.35Z" fill="white"/>
</svg>
