<svg width="40" height="40" viewBox="0 0 40 40" fill="none" xmlns="http://www.w3.org/2000/svg">
<rect width="40" height="40" rx="1" transform="matrix(1 0 0 -1 0 40)" fill="white"/>
<path d="M29.0867 11.826H13.1117L29.7283 28.4427C29.8206 28.5251 29.895 28.6255 29.9472 28.7377C29.9993 28.8499 30.028 28.9715 30.0316 29.0951C30.0351 29.2188 30.0134 29.3419 29.9678 29.4568C29.9222 29.5718 29.8536 29.6763 29.7663 29.7639C29.6789 29.8515 29.5746 29.9203 29.4598 29.9662C29.3449 30.0122 29.2219 30.0342 29.0982 30.0309C28.9746 30.0277 28.8528 29.9993 28.7405 29.9475C28.6282 29.8956 28.5277 29.8214 28.445 29.7294L11.8267 13.1127V29.086C11.8267 29.3283 11.7304 29.5606 11.5592 29.7319C11.3879 29.9031 11.1556 29.9994 10.9133 29.9994C10.6711 29.9994 10.4388 29.9031 10.2675 29.7319C10.0962 29.5606 10 29.3283 10 29.086V10.9127C10 10.4077 10.4083 9.99937 10.9133 9.99937H29.0867C29.3289 9.99937 29.5612 10.0956 29.7325 10.2669C29.9038 10.4382 30 10.6705 30 10.9127C30 11.1549 29.9038 11.3872 29.7325 11.5585C29.5612 11.7298 29.3289 11.826 29.0867 11.826Z" fill="#18181B"/>
</svg>
