<svg width="20" height="22" viewBox="0 0 20 22" fill="none" xmlns="http://www.w3.org/2000/svg">
<path d="M11.4697 20.1035C16.1797 19.3946 19.7914 15.3307 19.7914 10.4229C19.7914 5.01577 15.4083 0.63269 10.0011 0.63269C4.59401 0.63269 0.210938 5.01577 0.210938 10.4229C0.210938 15.3307 3.82255 19.3956 8.53262 20.1035V13.36H7.06408C6.67461 13.36 6.30108 13.2052 6.02568 12.9298C5.75027 12.6544 5.59555 12.2809 5.59555 11.8914C5.59555 11.502 5.75027 11.1284 6.02568 10.853C6.30108 10.5776 6.67461 10.4229 7.06408 10.4229H8.53262V8.46486C8.53262 7.55607 8.89363 6.68451 9.53624 6.04191C10.1788 5.3993 11.0504 5.03828 11.9592 5.03828H12.4487C12.8382 5.03828 13.2117 5.193 13.4871 5.46841C13.7625 5.74381 13.9172 6.11734 13.9172 6.50682C13.9172 6.8963 13.7625 7.26982 13.4871 7.54523C13.2117 7.82063 12.8382 7.97535 12.4487 7.97535H11.9592C11.8294 7.97535 11.7049 8.02692 11.6131 8.11872C11.5213 8.21052 11.4697 8.33503 11.4697 8.46486V10.4229H12.9382C13.3277 10.4229 13.7012 10.5776 13.9766 10.853C14.252 11.1284 14.4067 11.502 14.4067 11.8914C14.4067 12.2809 14.252 12.6544 13.9766 12.9298C13.7012 13.2052 13.3277 13.36 12.9382 13.36H11.4697V20.1035Z" fill="white"/>
</svg>
