<svg width="24" height="25" viewBox="0 0 24 25" fill="none" xmlns="http://www.w3.org/2000/svg">
<path fill-rule="evenodd" clip-rule="evenodd" d="M3 3.5V17.5H14.1935V16.5H4V4.5H17.5V5.56H18.5V3.5H3ZM18.5 8.5C18.5 8.76522 18.3946 9.01957 18.2071 9.20711C18.0196 9.39464 17.7652 9.5 17.5 9.5C17.2348 9.5 16.9804 9.39464 16.7929 9.20711C16.6054 9.01957 16.5 8.76522 16.5 8.5C16.5 8.23478 16.6054 7.98043 16.7929 7.79289C16.9804 7.60536 17.2348 7.5 17.5 7.5C17.7652 7.5 18.0196 7.60536 18.2071 7.79289C18.3946 7.98043 18.5 8.23478 18.5 8.5ZM19.5 8.5C19.5 9.03043 19.2893 9.53914 18.9142 9.91421C18.5391 10.2893 18.0304 10.5 17.5 10.5C16.9696 10.5 16.4609 10.2893 16.0858 9.91421C15.7107 9.53914 15.5 9.03043 15.5 8.5C15.5 7.96957 15.7107 7.46086 16.0858 7.08579C16.4609 6.71071 16.9696 6.5 17.5 6.5C18.0304 6.5 18.5391 6.71071 18.9142 7.08579C19.2893 7.46086 19.5 7.96957 19.5 8.5Z" fill="white"/>
<path fill-rule="evenodd" clip-rule="evenodd" d="M15.0467 11.415C15.3256 11.1488 15.6962 11.0002 16.0817 11H18.1227C18.8547 11 19.5362 11.249 20.0612 11.745C20.5662 12.222 20.8292 12.8335 20.9367 13.413C21.1057 14.324 20.9307 15.3195 20.5002 16.202V20.25C20.5002 20.5637 20.3823 20.8659 20.1698 21.0967C19.9574 21.3275 19.6659 21.4699 19.3533 21.4958C19.0407 21.5217 18.7298 21.4291 18.4823 21.2363C18.2348 21.0436 18.0688 20.7649 18.0172 20.4555L17.7502 18.8535L17.4832 20.4555C17.4317 20.7649 17.2657 21.0436 17.0181 21.2363C16.7706 21.4291 16.4597 21.5217 16.1471 21.4958C15.8345 21.4699 15.543 21.3275 15.3306 21.0967C15.1181 20.8659 15.0002 20.5637 15.0002 20.25V15.5465C14.7722 15.6782 14.5135 15.7475 14.2502 15.7475H11.6992C11.3014 15.7475 10.9199 15.5895 10.6386 15.3082C10.3573 15.0269 10.1992 14.6453 10.1992 14.2475C10.1992 13.8497 10.3573 13.4681 10.6386 13.1868C10.9199 12.9055 11.3014 12.7475 11.6992 12.7475H13.6492L15.0467 11.415ZM16.0002 17.2375V20.25C16.0004 20.3126 16.0241 20.3729 16.0665 20.4189C16.109 20.4649 16.1672 20.4933 16.2296 20.4985C16.2921 20.5036 16.3541 20.4852 16.4036 20.4467C16.453 20.4083 16.4863 20.3527 16.4967 20.291L17.0182 17.163C17.0376 17.0462 17.0978 16.9402 17.1881 16.8636C17.2784 16.7871 17.3929 16.7451 17.5112 16.745H17.9892C18.1076 16.7451 18.2221 16.7871 18.3123 16.8636C18.4026 16.9402 18.4628 17.0462 18.4822 17.163L19.0037 20.291C19.0142 20.3527 19.0474 20.4083 19.0969 20.4467C19.1463 20.4852 19.2084 20.5036 19.2708 20.4985C19.3332 20.4933 19.3914 20.4649 19.4339 20.4189C19.4764 20.3729 19.5 20.3126 19.5002 20.25V16.0835C19.5002 16.0035 19.5194 15.9246 19.5562 15.8535C19.9422 15.108 20.0827 14.2915 19.9537 13.5955C19.8752 13.1725 19.6917 12.7715 19.3747 12.472C19.0512 12.1665 18.6222 12 18.1227 12H16.0822C15.9537 12 15.8297 12.0495 15.7367 12.138L14.1947 13.609C14.1018 13.6978 13.9782 13.7474 13.8497 13.7475H11.6992C11.5666 13.7475 11.4394 13.8002 11.3457 13.8939C11.2519 13.9877 11.1992 14.1149 11.1992 14.2475C11.1992 14.3801 11.2519 14.5073 11.3457 14.6011C11.4394 14.6948 11.5666 14.7475 11.6992 14.7475H14.2502C14.3787 14.7474 14.5023 14.6978 14.5952 14.609L15.1552 14.075C15.2261 14.0075 15.3152 13.9622 15.4115 13.9448C15.5078 13.9275 15.6071 13.9388 15.6971 13.9773C15.7871 14.0158 15.8638 14.08 15.9176 14.1617C15.9715 14.2434 16.0002 14.3391 16.0002 14.437V17.2375Z" fill="white"/>
</svg>
