<svg width="23" height="21" viewBox="0 0 23 21" fill="none" xmlns="http://www.w3.org/2000/svg">
<path d="M5.00586 14.492L7.52986 7.52899C7.98986 6.56199 8.69186 5.76299 9.49686 7.67999C10.2399 9.44999 11.3469 12.69 12.0019 14.495M6.15186 11.502H10.8209" stroke="white" stroke-width="2" stroke-linecap="round" stroke-linejoin="round"/>
<path d="M2.964 2.818C1.5 4.136 1.5 6.258 1.5 10.5C1.5 14.742 1.5 16.864 2.964 18.182C4.43 19.5 6.786 19.5 11.5 19.5C16.214 19.5 18.571 19.5 20.035 18.182C21.499 16.864 21.5 14.742 21.5 10.5C21.5 6.258 21.5 4.136 20.035 2.818C18.572 1.5 16.214 1.5 11.5 1.5C6.786 1.5 4.429 1.5 2.964 2.818Z" stroke="white" stroke-width="2" stroke-linecap="round" stroke-linejoin="round"/>
<path d="M17.9839 7.487V10.482M17.9839 10.482V14.425M17.9839 10.482H15.9659C15.7259 10.482 15.4879 10.526 15.2639 10.613C13.5709 11.27 13.5709 13.713 15.2639 14.37C15.4889 14.457 15.7259 14.501 15.9659 14.501H17.9839" stroke="white" stroke-width="2" stroke-linecap="round" stroke-linejoin="round"/>
</svg>
