<svg width="24" height="24" viewBox="0 0 24 24" fill="none" xmlns="http://www.w3.org/2000/svg">
<path d="M20.4446 2.90234H3.55653C3.15039 2.90234 2.82227 3.23047 2.82227 3.63661V20.5247C2.82227 20.9309 3.15039 21.259 3.55653 21.259H20.4446C20.8508 21.259 21.1789 20.9309 21.1789 20.5247V3.63661C21.1789 3.23047 20.8508 2.90234 20.4446 2.90234ZM8.2673 18.5445H5.54364V9.78379H8.2673V18.5445ZM6.90662 8.58602C6.59439 8.58602 6.28917 8.49343 6.02956 8.31997C5.76994 8.1465 5.5676 7.89994 5.44812 7.61148C5.32863 7.32301 5.29737 7.0056 5.35828 6.69936C5.41919 6.39313 5.56955 6.11184 5.79033 5.89106C6.01111 5.67028 6.2924 5.51992 6.59864 5.45901C6.90487 5.3981 7.22229 5.42936 7.51075 5.54885C7.79921 5.66833 8.04577 5.87067 8.21924 6.13029C8.3927 6.3899 8.48529 6.69512 8.48529 7.00735C8.483 7.87929 7.77626 8.58602 6.90662 8.58602ZM18.4644 18.5445H15.743V14.2835C15.743 13.267 15.7247 11.9613 14.3273 11.9613C12.9115 11.9613 12.6936 13.0673 12.6936 14.21V18.5445H9.97447V9.78379H12.5857V10.9816H12.6224C12.985 10.2932 13.873 9.56581 15.1992 9.56581C17.9573 9.56581 18.4644 11.3808 18.4644 13.7396V18.5445Z" fill="white"/>
</svg>
