<svg width="42" height="13" viewBox="0 0 42 13" fill="none" xmlns="http://www.w3.org/2000/svg">
<path d="M11.072 10.816C10.9333 10.9653 10.7147 11.12 10.416 11.28C10.1173 11.4293 9.77067 11.568 9.376 11.696C8.992 11.824 8.59733 11.9253 8.192 12C7.78667 12.0853 7.40267 12.128 7.04 12.128C6.08 12.128 5.216 11.9893 4.448 11.712C3.68 11.424 3.024 11.0293 2.48 10.528C1.936 10.016 1.52 9.41333 1.232 8.72C0.944 8.02667 0.8 7.26933 0.8 6.448C0.8 5.37067 0.96 4.43733 1.28 3.648C1.61067 2.848 2.05333 2.18667 2.608 1.664C3.17333 1.13067 3.81867 0.735999 4.544 0.48C5.28 0.224 6.048 0.0959997 6.848 0.0959997C7.60533 0.0959997 8.29867 0.181333 8.928 0.351999C9.55733 0.511999 10.0907 0.714666 10.528 0.959999L9.776 3.12C9.584 3.01333 9.328 2.90667 9.008 2.8C8.688 2.69333 8.36267 2.608 8.032 2.544C7.70133 2.46933 7.408 2.432 7.152 2.432C6.512 2.432 5.94667 2.512 5.456 2.672C4.96533 2.832 4.54933 3.072 4.208 3.392C3.87733 3.712 3.62667 4.112 3.456 4.592C3.28533 5.06133 3.2 5.61067 3.2 6.24C3.2 6.79467 3.296 7.296 3.488 7.744C3.68 8.18133 3.94667 8.55467 4.288 8.864C4.64 9.17333 5.05067 9.408 5.52 9.568C6 9.728 6.528 9.808 7.104 9.808C7.43467 9.808 7.73867 9.78667 8.016 9.744C8.29333 9.69067 8.528 9.61067 8.72 9.504V8.08H6.688V5.84H11.072V10.816ZM24.2515 0.223999V12H21.9315V7.216H16.6675V12H14.3475V0.223999H16.6675V4.976H21.9315V0.223999H24.2515ZM31.493 0.223999C32.229 0.223999 32.885 0.319999 33.461 0.511999C34.037 0.693333 34.517 0.959999 34.901 1.312C35.2957 1.65333 35.5943 2.06933 35.797 2.56C35.9997 3.04 36.101 3.584 36.101 4.192C36.101 4.672 36.0263 5.152 35.877 5.632C35.7383 6.112 35.5037 6.54933 35.173 6.944C34.853 7.33867 34.4263 7.65867 33.893 7.904C33.3597 8.13867 32.6983 8.256 31.909 8.256H30.245V12H27.925V0.223999H31.493ZM31.893 6.016C32.245 6.016 32.5383 5.95733 32.773 5.84C33.0077 5.72267 33.189 5.57333 33.317 5.392C33.4557 5.21067 33.5517 5.024 33.605 4.832C33.669 4.62933 33.701 4.44267 33.701 4.272C33.701 4.144 33.6797 3.984 33.637 3.792C33.605 3.58933 33.5303 3.38667 33.413 3.184C33.2957 2.98133 33.1143 2.81067 32.869 2.672C32.6343 2.53333 32.3143 2.464 31.909 2.464H30.245V6.016H31.893ZM34.069 7.456L36.981 12H34.277L31.301 7.52L34.069 7.456ZM39.5337 0.223999H41.8537V12H39.5337V0.223999Z" fill="#4FB1FF"/>
</svg>
