<svg width="42" height="43" viewBox="0 0 42 43" fill="none" xmlns="http://www.w3.org/2000/svg">
<path d="M10.5 12.416C9.46165 12.416 8.44661 12.1081 7.58326 11.5312C6.7199 10.9544 6.04699 10.1344 5.64963 9.17511C5.25227 8.21579 5.1483 7.16019 5.35088 6.14179C5.55345 5.12339 6.05346 4.18793 6.78769 3.45371C7.52191 2.71948 8.45738 2.21947 9.47578 2.0169C10.4942 1.81432 11.5498 1.91829 12.5091 2.31565C13.4684 2.71301 14.2883 3.38592 14.8652 4.24927C15.4421 5.11263 15.75 6.12767 15.75 7.16602C15.75 8.5584 15.1969 9.89376 14.2123 10.8783C13.2277 11.8629 11.8924 12.416 10.5 12.416ZM10.5 4.54102C9.98082 4.54102 9.47331 4.69497 9.04163 4.98341C8.60995 5.27185 8.2735 5.68182 8.07482 6.16147C7.87614 6.64113 7.82415 7.16893 7.92544 7.67813C8.02672 8.18733 8.27673 8.65506 8.64384 9.02217C9.01096 9.38929 9.47869 9.63929 9.98789 9.74058C10.4971 9.84187 11.0249 9.78988 11.5045 9.5912C11.9842 9.39252 12.3942 9.05607 12.6826 8.62439C12.971 8.19271 13.125 7.68519 13.125 7.16602C13.125 6.46982 12.8484 5.80215 12.3562 5.30986C11.8639 4.81758 11.1962 4.54102 10.5 4.54102ZM31.5 12.416C30.4616 12.416 29.4466 12.1081 28.5833 11.5312C27.7199 10.9544 27.047 10.1344 26.6496 9.17511C26.2523 8.21579 26.1483 7.16019 26.3509 6.14179C26.5534 5.12339 27.0535 4.18793 27.7877 3.45371C28.5219 2.71948 29.4574 2.21947 30.4758 2.0169C31.4942 1.81432 32.5498 1.91829 33.5091 2.31565C34.4684 2.71301 35.2883 3.38592 35.8652 4.24927C36.4421 5.11263 36.75 6.12767 36.75 7.16602C36.75 8.5584 36.1969 9.89376 35.2123 10.8783C34.2277 11.8629 32.8924 12.416 31.5 12.416ZM31.5 4.54102C30.9808 4.54102 30.4733 4.69497 30.0416 4.98341C29.6099 5.27185 29.2735 5.68182 29.0748 6.16147C28.8761 6.64113 28.8242 7.16893 28.9254 7.67813C29.0267 8.18733 29.2767 8.65506 29.6438 9.02217C30.011 9.38929 30.4787 9.63929 30.9879 9.74058C31.4971 9.84187 32.0249 9.78988 32.5045 9.5912C32.9842 9.39252 33.3942 9.05607 33.6826 8.62439C33.971 8.19271 34.125 7.68519 34.125 7.16602C34.125 6.46982 33.8484 5.80215 33.3562 5.30986C32.8639 4.81758 32.1962 4.54102 31.5 4.54102ZM34.125 39.9785H28.875C28.1788 39.9785 27.5111 39.702 27.0188 39.2097C26.5266 38.7174 26.25 38.0497 26.25 37.3535V28.166H28.875V37.3535H34.125V25.541H36.75V17.666C36.75 17.3179 36.6117 16.9841 36.3656 16.7379C36.1194 16.4918 35.7856 16.3535 35.4375 16.3535H27.0112L21 26.8535L14.9888 16.3535H6.5625C6.2144 16.3535 5.88056 16.4918 5.63442 16.7379C5.38828 16.9841 5.25 17.3179 5.25 17.666V25.541H7.875V37.3535H13.125V28.166H15.75V37.3535C15.75 38.0497 15.4734 38.7174 14.9812 39.2097C14.4889 39.702 13.8212 39.9785 13.125 39.9785H7.875C7.17881 39.9785 6.51113 39.702 6.01884 39.2097C5.52656 38.7174 5.25 38.0497 5.25 37.3535V28.166C4.55381 28.166 3.88613 27.8895 3.39384 27.3972C2.90156 26.9049 2.625 26.2372 2.625 25.541V17.666C2.625 16.6217 3.03984 15.6202 3.77827 14.8818C4.51669 14.1434 5.51821 13.7285 6.5625 13.7285H16.5112L21 21.6035L25.4888 13.7285H35.4375C36.4818 13.7285 37.4833 14.1434 38.2217 14.8818C38.9602 15.6202 39.375 16.6217 39.375 17.666V25.541C39.375 26.2372 39.0984 26.9049 38.6062 27.3972C38.1139 27.8895 37.4462 28.166 36.75 28.166V37.3535C36.75 38.0497 36.4734 38.7174 35.9812 39.2097C35.4889 39.702 34.8212 39.9785 34.125 39.9785Z" fill="#C9E6FE"/>
</svg>
