<svg width="32" height="32" viewBox="0 0 32 32" fill="none" xmlns="http://www.w3.org/2000/svg">
<path d="M24.5643 16.6667C24.1961 16.6667 23.8976 16.3682 23.8976 16C23.8976 15.6318 24.1961 15.3333 24.5643 15.3333H27.5376C27.9058 15.3333 28.2043 15.6318 28.2043 16C28.2043 16.3682 27.9058 16.6667 27.5376 16.6667H24.5643ZM25.7503 24.7659C25.5246 25.0531 25.1108 25.1075 24.8185 24.8883L22.4474 23.1097C22.1458 22.8835 22.0894 22.4535 22.3225 22.1571C22.5481 21.8704 22.9614 21.8161 23.2533 22.035L25.6249 23.813C25.9266 24.0392 25.9832 24.4693 25.7503 24.7659ZM23.1507 9.86234C22.8587 10.0812 22.4454 10.027 22.2198 9.74019C21.9868 9.44388 22.0431 9.01381 22.3447 8.7876L24.7159 7.00902C25.0081 6.78981 25.4219 6.84419 25.6476 7.13145C25.8806 7.42799 25.824 7.85814 25.5223 8.08435L23.1507 9.86234ZM8.00026 23.9493C7.63207 23.9493 7.33359 23.6509 7.33359 23.2827V20.256C7.33359 19.4916 6.71395 18.872 5.94959 18.872C5.35315 18.872 4.8447 18.6622 4.42426 18.2427C4.00381 17.8231 3.79404 17.3151 3.79492 16.7187V15.2827C3.79492 14.6862 4.0047 14.1778 4.42426 13.7573C4.84381 13.3369 5.35181 13.1271 5.94826 13.128H10.3752C10.7338 13.128 11.0857 13.0316 11.3942 12.8489L13.1866 11.7876C14.5198 10.9982 16.2056 11.9592 16.2056 13.5086V18.4914C16.2056 20.0408 14.5198 21.0018 13.1866 20.2124L11.3403 19.1191C11.0671 18.9573 10.7554 18.872 10.4379 18.872C9.45983 18.872 8.66692 19.6649 8.66692 20.643V23.2827C8.66692 23.6509 8.36845 23.9493 8.00026 23.9493ZM11.864 17.8693C13.1973 18.6476 14.8723 17.6859 14.8723 16.142V15.858C14.8723 14.3141 13.1973 13.3524 11.864 14.1307L11.7648 14.1886C11.4588 14.3672 11.1109 14.4613 10.7566 14.4613H5.94826C5.74381 14.4613 5.55581 14.5471 5.38426 14.7187C5.2127 14.8902 5.12737 15.0782 5.12826 15.2827V16.7187C5.12826 16.9231 5.21359 17.1111 5.38426 17.2827C5.55492 17.4542 5.74292 17.5396 5.94826 17.5387H10.7566C11.1109 17.5387 11.4588 17.6328 11.7648 17.8114L11.864 17.8693ZM19.6429 18.2213C19.3617 18.9194 18.5643 18.6333 18.5643 17.8807V14.1192C18.5643 13.3684 19.3608 13.0829 19.6429 13.7787C19.9158 14.4516 20.0518 15.192 20.0509 16C20.05 16.808 19.914 17.5484 19.6429 18.2213Z" fill="white"/>
</svg>
