<svg width="56" height="57" viewBox="0 0 56 57" fill="none" xmlns="http://www.w3.org/2000/svg">
<g clip-path="url(#clip0_2_3629)">
<path d="M12.25 28.5L34.3 6.44998C35.7 5.04998 37.8 3.99998 40.25 3.99998C42.7 3.99998 44.8 5.04998 46.55 6.44998C50.05 9.94998 50.05 15.55 46.55 18.7L36.75 28.5H41.65L48.65 21.5C53.55 16.6 53.55 8.89998 48.65 4.34998C46.2 1.89998 43.05 0.849976 39.9 0.849976C36.75 0.849976 33.95 1.54998 31.5 3.99998L9.45 26.4C8.4 27.1 7.7 28.15 7 29.55C8.75 28.85 10.5 28.5 12.25 28.5Z" fill="#64B5F5"/>
<path d="M25.55 20.1L17.15 28.5H33.6L25.55 20.1ZM43.75 32H12.25C5.6 32 0 37.6 0 44.25C0 50.9 5.6 56.5 12.25 56.5H43.75C50.4 56.5 56 50.9 56 44.25C56 37.6 50.4 32 43.75 32ZM43.75 53H28V39H12.25C8.4 39 5.25 41.1 3.5 43.2C4.2 39 7.7 35.5 12.25 35.5H43.75C48.65 35.5 52.5 39.35 52.5 44.25C52.5 49.15 48.65 53 43.75 53Z" fill="#64B5F5"/>
</g>
<defs>
<clipPath id="clip0_2_3629">
<rect width="56" height="56" fill="white" transform="translate(0 0.5)"/>
</clipPath>
</defs>
</svg>
