<svg width="50" height="50" viewBox="0 0 50 50" fill="none" xmlns="http://www.w3.org/2000/svg">
<path d="M35.4163 4.16671C35.4163 3.01611 34.4836 2.08337 33.333 2.08337H6.24967C5.14461 2.08337 4.0848 2.52236 3.3034 3.30376C2.52199 4.08516 2.08301 5.14497 2.08301 6.25004V22.9167C2.08301 24.0673 3.01575 25 4.16634 25C5.31693 25 6.24967 24.0673 6.24967 22.9167V12.25C6.24967 8.93633 8.93597 6.25004 12.2497 6.25004H33.333C34.4836 6.25004 35.4163 5.3173 35.4163 4.16671Z" fill="white"/>
<rect opacity="0.5" x="13.3926" y="13.3928" width="31.25" height="24.1071" fill="white"/>
<path d="M43.7503 10.4166H14.5837C13.4786 10.4166 12.4188 10.8556 11.6374 11.637C10.856 12.4184 10.417 13.4782 10.417 14.5833V35.4166C10.417 36.5217 10.856 37.5815 11.6374 38.3629C12.4188 39.1443 13.4786 39.5833 14.5837 39.5833H24.5107C25.3909 39.5833 26.1045 40.2968 26.1045 41.177C26.1045 42.0572 25.3909 42.7708 24.5107 42.7708H24.4482C23.6026 42.7708 22.917 43.4564 22.917 44.302C22.917 45.1477 23.6026 45.8333 24.4482 45.8333H33.8753C34.7268 45.8333 35.417 45.1431 35.417 44.2916C35.417 43.4402 34.7268 42.75 33.8753 42.75H33.8337C32.9592 42.75 32.2503 42.0411 32.2503 41.1666C32.2503 40.2922 32.9592 39.5833 33.8337 39.5833H43.7503C44.8554 39.5833 45.9152 39.1443 46.6966 38.3629C47.478 37.5815 47.917 36.5217 47.917 35.4166V14.5833C47.917 13.4782 47.478 12.4184 46.6966 11.637C45.9152 10.8556 44.8554 10.4166 43.7503 10.4166ZM43.7503 29.4166C43.7503 32.7303 41.064 35.4166 37.7503 35.4166H20.5837C17.2699 35.4166 14.5837 32.7303 14.5837 29.4166V20.5833C14.5837 17.2696 17.2699 14.5833 20.5837 14.5833H37.7503C41.064 14.5833 43.7503 17.2696 43.7503 20.5833V29.4166Z" fill="white"/>
</svg>
