<svg width="56" height="56" viewBox="0 0 56 56" fill="none" xmlns="http://www.w3.org/2000/svg">
<path fill-rule="evenodd" clip-rule="evenodd" d="M27.9911 30.3333H28.0378C34.4813 30.3333 39.7044 25.1102 39.7044 18.6667C39.7044 12.2232 34.4813 7 28.0378 7H27.9444C21.5441 7.05017 16.3711 12.2547 16.3711 18.6667C16.3711 25.0787 21.5441 30.2832 27.9444 30.3333H27.9911ZM37.2988 19.8333H34.9654C34.9172 20.6399 34.8219 21.4177 34.6796 22.1667H36.6933C36.9908 21.4317 37.1973 20.6488 37.2999 19.8333M35.3248 24.5H34.0648C33.8256 25.1883 33.5456 25.8335 33.2294 26.425C34.0217 25.8941 34.7292 25.2449 35.3248 24.5ZM32.2996 22.1667C32.4594 21.4352 32.5726 20.6535 32.6274 19.8333H29.2044V22.1667H32.2996ZM29.2044 24.5H31.5646C31.3878 24.9188 31.1823 25.325 30.9498 25.7157C30.3664 26.6852 29.7633 27.2848 29.2044 27.6243V24.5ZM26.8711 22.1667V19.8333H23.3734C23.4283 20.6535 23.5414 21.4352 23.7013 22.1667H26.8711ZM24.4363 24.5H26.8711V27.6687C26.2924 27.3373 25.6601 26.7295 25.0511 25.7157C24.8185 25.325 24.6131 24.9188 24.4363 24.5ZM21.3213 22.1667C21.1789 21.4177 21.0837 20.6399 21.0354 19.8333H18.7768C18.8783 20.6488 19.0848 21.4317 19.3834 22.1667H21.3213ZM20.7519 24.5H21.9373C22.1648 25.158 22.4319 25.7763 22.7306 26.3445C21.985 25.829 21.3184 25.2077 20.7519 24.5ZM34.9654 17.5C34.9193 16.717 34.8238 15.9377 34.6796 15.1667H36.6933C36.9908 15.9017 37.1973 16.6845 37.2999 17.5H34.9654ZM35.3236 12.8333H34.0636C33.8358 12.1708 33.5565 11.5272 33.2283 10.9083C34.021 11.4391 34.7276 12.0883 35.3236 12.8333ZM29.2044 12.8333H31.5646C31.3878 12.4145 31.1823 12.0083 30.9498 11.6177C30.3664 10.647 29.7633 10.0485 29.2044 9.709V12.8333ZM32.2996 15.1667H29.2044V17.5H32.6274C32.5745 16.7153 32.4649 15.9355 32.2996 15.1667ZM26.8711 9.66467V12.8333H24.4363C24.6245 12.3923 24.8294 11.9871 25.0511 11.6177C25.6589 10.6038 26.2924 9.996 26.8711 9.66467ZM26.8711 15.1667H23.7013C23.536 15.9355 23.4264 16.7153 23.3734 17.5H26.8711V15.1667ZM22.7294 10.9888C22.4197 11.5832 22.1545 12.1997 21.9361 12.8333H20.7519C21.3184 12.1257 21.9838 11.5043 22.7294 10.9888ZM21.3224 15.1667H19.3834C19.0812 15.9149 18.8773 16.6993 18.7768 17.5H21.0366C21.0848 16.6934 21.1801 15.9157 21.3224 15.1667Z" fill="white"/>
<path d="M11.7938 38.0579C12.4553 38.7602 13.1122 39.4579 13.7305 40.3445V42H22.4023V40.3445C22.2472 39.0565 21.9742 36.736 21.9497 36.0909C21.917 35.1832 20.699 33.5289 20.699 33.5289L16.9598 28.8155C16.9598 28.8155 15.9017 27.6979 15.2962 26.4589C14.6895 25.2187 13.4015 26.7785 13.2312 27.8939C13.0585 29.0092 13.3852 29.5972 13.3852 29.5972L15.5202 33.8415C15.5202 33.8415 13.0445 30.45 12.2757 29.0874C11.886 28.3967 11.7775 26.9337 11.655 25.2992C11.5372 23.7067 11.4065 21.9509 10.9923 20.5859C10.1523 17.8209 7.72333 18.5127 7.30216 19.7494C6.88216 20.9849 6.97666 29.1504 7.1295 30.5119C7.24966 31.5782 7.8925 32.6212 8.617 33.7972C8.81766 34.1239 9.02533 34.4599 9.2295 34.8087C10.0415 36.1994 10.9212 37.1339 11.7938 38.0579ZM42.2718 40.3445C42.8902 39.4579 43.547 38.7602 44.2085 38.0579C45.0812 37.1339 45.9608 36.1994 46.774 34.8087C46.977 34.4587 47.1847 34.1239 47.3853 33.7984C48.1098 32.6224 48.7527 31.5782 48.8728 30.5119C49.0257 29.1504 49.1213 20.9849 48.7002 19.7494C48.279 18.5127 45.85 17.8209 45.01 20.587C44.597 21.952 44.4663 23.7067 44.3473 25.2992C44.2248 26.9337 44.1163 28.3967 43.7267 29.0874C42.9578 30.4512 40.481 33.8415 40.481 33.8415L42.6172 29.5972C42.6172 29.5972 42.9438 29.0092 42.7723 27.8939C42.6008 26.7785 41.3128 25.2187 40.7073 26.4589C40.1007 27.6979 39.0425 28.8155 39.0425 28.8155L35.3033 33.5289C35.3033 33.5289 34.0853 35.1832 34.0527 36.0909C34.0293 36.736 33.7552 39.0565 33.6 40.3445V42H42.2718V40.3445ZM30.3333 47.8334C30.3333 48.1428 30.4562 48.4395 30.675 48.6583C30.8938 48.8771 31.1906 49 31.5 49H40.8333C41.1427 49 41.4395 48.8771 41.6583 48.6583C41.8771 48.4395 42 48.1428 42 47.8334V45.5C42 45.1906 41.8771 44.8939 41.6583 44.6751C41.4395 44.4563 41.1427 44.3334 40.8333 44.3334H31.5C31.1906 44.3334 30.8938 44.4563 30.675 44.6751C30.4562 44.8939 30.3333 45.1906 30.3333 45.5V47.8334ZM25.669 47.8334C25.669 48.1428 25.5461 48.4395 25.3273 48.6583C25.1085 48.8771 24.8118 49 24.5023 49H15.169C14.8596 49 14.5628 48.8771 14.344 48.6583C14.1252 48.4395 14.0023 48.1428 14.0023 47.8334V45.5C14.0023 45.1906 14.1252 44.8939 14.344 44.6751C14.5628 44.4563 14.8596 44.3334 15.169 44.3334H24.5023C24.8118 44.3334 25.1085 44.4563 25.3273 44.6751C25.5461 44.8939 25.669 45.1906 25.669 45.5V47.8334Z" fill="white"/>
</svg>
