<svg width="57" height="56" viewBox="0 0 57 56" fill="none" xmlns="http://www.w3.org/2000/svg">
<path fill-rule="evenodd" clip-rule="evenodd" d="M28.4906 30.3333H28.5373C34.9808 30.3333 40.2039 25.1102 40.2039 18.6667C40.2039 12.2232 34.9808 7 28.5373 7H28.4439C22.0436 7.05017 16.8706 12.2547 16.8706 18.6667C16.8706 25.0787 22.0436 30.2832 28.4439 30.3333H28.4906ZM37.7983 19.8333H35.4649C35.4167 20.6399 35.3214 21.4177 35.1791 22.1667H37.1928C37.4903 21.4317 37.6968 20.6488 37.7994 19.8333M35.8243 24.5H34.5643C34.3251 25.1883 34.0451 25.8335 33.7289 26.425C34.5212 25.8941 35.2287 25.2449 35.8243 24.5ZM32.7991 22.1667C32.9589 21.4352 33.0721 20.6535 33.1269 19.8333H29.7039V22.1667H32.7991ZM29.7039 24.5H32.0641C31.8873 24.9188 31.6818 25.325 31.4493 25.7157C30.8659 26.6852 30.2628 27.2848 29.7039 27.6243V24.5ZM27.3706 22.1667V19.8333H23.8729C23.9278 20.6535 24.0409 21.4352 24.2008 22.1667H27.3706ZM24.9358 24.5H27.3706V27.6687C26.7919 27.3373 26.1596 26.7295 25.5506 25.7157C25.318 25.325 25.1126 24.9188 24.9358 24.5ZM21.8208 22.1667C21.6784 21.4177 21.5832 20.6399 21.5349 19.8333H19.2763C19.3778 20.6488 19.5843 21.4317 19.8829 22.1667H21.8208ZM21.2514 24.5H22.4368C22.6643 25.158 22.9314 25.7763 23.2301 26.3445C22.4845 25.829 21.8179 25.2077 21.2514 24.5ZM35.4649 17.5C35.4188 16.717 35.3233 15.9377 35.1791 15.1667H37.1928C37.4903 15.9017 37.6968 16.6845 37.7994 17.5H35.4649ZM35.8231 12.8333H34.5631C34.3353 12.1708 34.056 11.5272 33.7278 10.9083C34.5205 11.4391 35.2271 12.0883 35.8231 12.8333ZM29.7039 12.8333H32.0641C31.8873 12.4145 31.6818 12.0083 31.4493 11.6177C30.8659 10.647 30.2628 10.0485 29.7039 9.709V12.8333ZM32.7991 15.1667H29.7039V17.5H33.1269C33.074 16.7153 32.9644 15.9355 32.7991 15.1667ZM27.3706 9.66467V12.8333H24.9358C25.124 12.3923 25.3289 11.9871 25.5506 11.6177C26.1584 10.6038 26.7919 9.996 27.3706 9.66467ZM27.3706 15.1667H24.2008C24.0355 15.9355 23.9259 16.7153 23.8729 17.5H27.3706V15.1667ZM23.2289 10.9888C22.9192 11.5832 22.654 12.1997 22.4356 12.8333H21.2514C21.8179 12.1257 22.4833 11.5043 23.2289 10.9888ZM21.8219 15.1667H19.8829C19.5807 15.9149 19.3768 16.6993 19.2763 17.5H21.5361C21.5843 16.6934 21.6796 15.9157 21.8219 15.1667Z" fill="#FF0000"/>
<path d="M12.2938 38.0579C12.9553 38.7602 13.6122 39.4579 14.2305 40.3445V42H22.9023V40.3445C22.7472 39.0565 22.4742 36.736 22.4497 36.0909C22.417 35.1832 21.199 33.5289 21.199 33.5289L17.4598 28.8155C17.4598 28.8155 16.4017 27.6979 15.7962 26.4589C15.1895 25.2187 13.9015 26.7785 13.7312 27.8939C13.5585 29.0092 13.8852 29.5972 13.8852 29.5972L16.0202 33.8415C16.0202 33.8415 13.5445 30.45 12.7757 29.0874C12.386 28.3967 12.2775 26.9337 12.155 25.2992C12.0372 23.7067 11.9065 21.9509 11.4923 20.5859C10.6523 17.8209 8.22333 18.5127 7.80216 19.7494C7.38216 20.9849 7.47666 29.1504 7.6295 30.5119C7.74966 31.5782 8.3925 32.6212 9.117 33.7972C9.31766 34.1239 9.52533 34.4599 9.7295 34.8087C10.5415 36.1994 11.4212 37.1339 12.2938 38.0579ZM42.7718 40.3445C43.3902 39.4579 44.047 38.7602 44.7085 38.0579C45.5812 37.1339 46.4608 36.1994 47.274 34.8087C47.477 34.4587 47.6847 34.1239 47.8853 33.7984C48.6098 32.6224 49.2527 31.5782 49.3728 30.5119C49.5257 29.1504 49.6213 20.9849 49.2002 19.7494C48.779 18.5127 46.35 17.8209 45.51 20.587C45.097 21.952 44.9663 23.7067 44.8473 25.2992C44.7248 26.9337 44.6163 28.3967 44.2267 29.0874C43.4578 30.4512 40.981 33.8415 40.981 33.8415L43.1172 29.5972C43.1172 29.5972 43.4438 29.0092 43.2723 27.8939C43.1008 26.7785 41.8128 25.2187 41.2073 26.4589C40.6007 27.6979 39.5425 28.8155 39.5425 28.8155L35.8033 33.5289C35.8033 33.5289 34.5853 35.1832 34.5527 36.0909C34.5293 36.736 34.2552 39.0565 34.1 40.3445V42H42.7718V40.3445ZM30.8333 47.8334C30.8333 48.1428 30.9562 48.4395 31.175 48.6583C31.3938 48.8771 31.6906 49 32 49H41.3333C41.6427 49 41.9395 48.8771 42.1583 48.6583C42.3771 48.4395 42.5 48.1428 42.5 47.8334V45.5C42.5 45.1906 42.3771 44.8939 42.1583 44.6751C41.9395 44.4563 41.6427 44.3334 41.3333 44.3334H32C31.6906 44.3334 31.3938 44.4563 31.175 44.6751C30.9562 44.8939 30.8333 45.1906 30.8333 45.5V47.8334ZM26.169 47.8334C26.169 48.1428 26.0461 48.4395 25.8273 48.6583C25.6085 48.8771 25.3118 49 25.0023 49H15.669C15.3596 49 15.0628 48.8771 14.844 48.6583C14.6252 48.4395 14.5023 48.1428 14.5023 47.8334V45.5C14.5023 45.1906 14.6252 44.8939 14.844 44.6751C15.0628 44.4563 15.3596 44.3334 15.669 44.3334H25.0023C25.3118 44.3334 25.6085 44.4563 25.8273 44.6751C26.0461 44.8939 26.169 45.1906 26.169 45.5V47.8334Z" fill="#FF0000"/>
</svg>
