<svg width="22" height="22" viewBox="0 0 22 22" fill="none" xmlns="http://www.w3.org/2000/svg">
<path d="M3.65777 0.452881C2.03779 0.452881 0.720703 1.76997 0.720703 3.38994V18.0753C0.720703 19.6952 2.03779 21.0123 3.65777 21.0123H18.3431C19.9631 21.0123 21.2801 19.6952 21.2801 18.0753V3.38994C21.2801 1.76997 19.9631 0.452881 18.3431 0.452881H3.65777ZM17.2922 4.30778L12.5286 9.75052L18.132 17.1574H13.7447L10.312 12.6646L6.37914 17.1574H4.19929L9.29326 11.3338L3.91935 4.30778H8.41673L11.5236 8.41507L15.1123 4.30778H17.2922ZM15.5575 15.8541L7.76048 5.54226H6.46174L14.3459 15.8541H15.5529H15.5575Z" fill="white"/>
</svg>
