<svg width="24" height="26" viewBox="0 0 24 26" fill="none" xmlns="http://www.w3.org/2000/svg">
<path d="M6.55964 5.03557C7.92733 4.90198 9.68663 4.90198 11.9609 4.90198H12.0412C14.3145 4.90198 16.0738 4.90198 17.4415 5.03557C18.8189 5.17121 19.9057 5.44962 20.7789 6.08598C21.6875 6.74886 22.1271 7.62692 22.3326 8.74463C22.5255 9.78892 22.5255 11.1116 22.5255 12.729V12.882C22.5255 14.4994 22.5255 15.8221 22.3326 16.8664C22.1271 17.9841 21.6875 18.8622 20.7789 19.5251C19.9057 20.1614 18.8189 20.4399 17.4405 20.5755C16.0738 20.7091 14.3145 20.7091 12.0412 20.7091H11.9609C9.68761 20.7091 7.92831 20.7091 6.56062 20.5755C5.18314 20.4399 4.09642 20.1614 3.22314 19.5251C2.3146 18.8622 1.87502 17.9841 1.66943 16.8664C1.47656 15.8221 1.47656 14.4994 1.47656 12.882V12.729C1.47656 11.1116 1.47656 9.78892 1.66943 8.74463C1.87502 7.62692 2.3146 6.74886 3.22314 6.08598C4.09642 5.44962 5.18314 5.17121 6.5616 5.03557M11.5693 9.69C11.3193 9.51692 11.0139 9.45336 10.7193 9.51311C10.4246 9.57285 10.1644 9.75108 9.99502 10.0092C9.86775 10.204 9.79922 10.4355 9.79922 10.6721V14.939C9.79913 15.1528 9.85466 15.3626 9.95992 15.5462C10.0652 15.7297 10.2162 15.8801 10.397 15.9814C10.5778 16.0827 10.7815 16.131 10.9865 16.1213C11.1916 16.1116 11.3903 16.0441 11.5615 15.9262L14.6698 13.8111C14.827 13.7046 14.9563 13.559 15.046 13.3875C15.1358 13.216 15.1832 13.024 15.1839 12.8286C15.1847 12.6333 15.1389 12.4409 15.0505 12.2686C14.9621 12.0963 14.834 11.9497 14.6777 11.8418L11.5693 9.69Z" fill="white"/>
</svg>
